<?xml version="1.0" encoding="utf-8"?>
<!-- Generator: Adobe Illustrator 18.1.1, SVG Export Plug-In . SVG Version: 6.00 Build 0)  -->
<svg version="1.1" id="Calque_1" xmlns="http://www.w3.org/2000/svg" xmlns:xlink="http://www.w3.org/1999/xlink" x="0px" y="0px"
	 viewBox="-185 319.1 240.9 155.9" enable-background="new -185 319.1 240.9 155.9" xml:space="preserve">
<g id="Calque_2">
</g>
<g>
	<g>
		<path fill="#FFFFFF" d="M49.8,416.9c1.2,0.5,1.6,1,1.6,1.8c0,1-0.9,1.7-2.2,1.7c-1.4,0-2.4-0.6-3.2-1.8l-1.4,1.4
			c0.8,1.3,2.3,2.3,4.4,2.3c2.8,0,4.4-1.6,4.4-3.6c0-1.7-0.9-2.7-3.1-3.6l-1.4-0.6c-1.3-0.5-1.7-1-1.7-1.7s0.6-1.4,1.7-1.4
			c1,0,1.9,0.5,2.5,1.3l1.4-1.4c-0.8-1-2-1.8-3.7-1.8c-2.2,0-3.9,1.2-3.9,3.4c0,1.6,1,2.7,2.7,3.4L49.8,416.9z M30.7,422h8.7v-1.9
			h-6.6v-3.4h6.3v-1.9h-6.3v-3.2h6.6v-1.9h-8.7V422L30.7,422z M22.3,416.5c0,2.3-0.8,3.8-2.9,3.8c-2.1,0-2.9-1.5-2.9-3.8v-6.9h-2.1
			v6.9c0,3.8,2,5.7,5,5.7c3,0,5-1.9,5-5.7v-6.9h-2.1V416.5z M2.2,417.2l2.5,2.5c-0.6,0.4-1.3,0.6-2.1,0.6c-2.4,0-4.2-1.9-4.2-4.5
			c0-2.5,1.7-4.4,4.2-4.4c2.4,0,4.1,1.9,4.1,4.4c0,0.9-0.2,1.7-0.6,2.4l-2.5-2.5L2.2,417.2z M-3.8,415.8c0,3.6,2.7,6.4,6.3,6.4
			c3.6,0,6.3-2.8,6.3-6.4c0-3.6-2.8-6.4-6.3-6.4C-1.1,409.4-3.8,412.2-3.8,415.8 M-14.6,411.5h2v8.6h-2v1.9h6.1v-1.9h-2v-8.6h2v-1.9
			h-6.1V411.5L-14.6,411.5z M-24.4,411.5c1.8,0,2.9,0.7,2.9,2.2c0,1.6-1.1,2.2-2.9,2.2h-2.4v-4.3H-24.4z M-24.2,417.8
			c2.9,0,4.7-1.5,4.7-4.1c0-2.6-1.8-4-4.7-4h-4.7V422h2.1v-4.2H-24.2z M-42.2,409.6h-2.2l4.2,8.1v4.3h2.1v-4.3l4.2-8.1h-2.3
			l-2.9,5.8L-42.2,409.6z M-58.8,409.6v1.9h3.7V422h2.1v-10.5h3.8v-1.9H-58.8L-58.8,409.6z M-68.2,411.5h1l1.6,6.1h-4.3L-68.2,411.5
			z M-65.6,409.6h-4.2l-3.3,12.4h2.1l0.7-2.5h5.2l0.7,2.5h2.1L-65.6,409.6z M-89.7,416.9c1.2,0.5,1.6,1,1.6,1.8c0,1-0.9,1.7-2.2,1.7
			c-1.4,0-2.4-0.6-3.2-1.8l-1.4,1.4c0.8,1.3,2.3,2.3,4.4,2.3c2.8,0,4.4-1.6,4.4-3.6c0-1.7-0.9-2.7-3.1-3.6l-1.4-0.6
			c-1.3-0.5-1.7-1-1.7-1.7s0.6-1.4,1.8-1.4c1,0,1.9,0.5,2.5,1.3l1.4-1.4c-0.8-1-2-1.8-3.7-1.8c-2.2,0-3.9,1.2-3.9,3.4
			c0,1.6,1,2.7,2.7,3.4L-89.7,416.9z M-108.8,422h8.7v-1.9h-6.6v-3.4h6.3v-1.9h-6.3v-3.2h6.6v-1.9h-8.7V422z M-115.5,418.4
			c-0.8,1.1-2,1.9-3.6,1.9c-2.5,0-4.3-1.9-4.3-4.4c0-2.6,1.8-4.5,4.3-4.5c1.6,0,2.7,0.8,3.4,1.8l1.4-1.4c-1-1.4-2.6-2.3-4.8-2.3
			c-3.6,0-6.4,2.6-6.4,6.4c0,3.8,2.8,6.4,6.5,6.4c2.3,0,3.8-1,4.9-2.3L-115.5,418.4z M-135.8,411.5h1l1.6,6.1h-4.3L-135.8,411.5z
			 M-133.2,409.6h-4.2l-3.3,12.4h2.1l0.7-2.5h5.2l0.7,2.5h2.1L-133.2,409.6z M-149.5,411.5c1.8,0,2.9,0.7,2.9,2.2
			c0,1.6-1.1,2.2-2.9,2.2h-2.4v-4.3H-149.5z M-149.2,417.8c2.9,0,4.7-1.5,4.7-4.1c0-2.6-1.8-4-4.7-4h-4.7V422h2.1v-4.2H-149.2z
			 M-163.4,416.9c1.2,0.5,1.6,1,1.6,1.8c0,1-0.9,1.7-2.2,1.7c-1.4,0-2.4-0.6-3.2-1.8l-1.4,1.4c0.8,1.3,2.3,2.3,4.4,2.3
			c2.8,0,4.4-1.6,4.4-3.6c0-1.7-0.9-2.7-3.1-3.6l-1.4-0.6c-1.3-0.5-1.7-1-1.7-1.7s0.6-1.4,1.8-1.4c1,0,1.9,0.5,2.5,1.3l1.4-1.4
			c-0.8-1-2-1.8-3.7-1.8c-2.2,0-3.9,1.2-3.9,3.4c0,1.6,1,2.7,2.7,3.4L-163.4,416.9z M-182.5,422h8.7v-1.9h-6.6v-3.4h6.3v-1.9h-6.3
			v-3.2h6.6v-1.9h-8.7L-182.5,422L-182.5,422z"/>
	</g>
	<g>
		<g>
			<polygon fill="#0C0B0C" points="-142.7,374.5 -143.7,374.5 -143.7,361.6 -142.7,361.7 			"/>
		</g>
		<g>
			<polygon fill="#0C0B0C" points="-103.6,360.5 -102.5,360.5 -102.5,373.8 -103.6,373.7 			"/>
		</g>
		<polygon fill="#222425" points="-106.2,373.5 -106.2,387.3 -89.9,384.8 -89.9,374.6 		"/>
		<polygon fill="#9C9E9F" points="23.9,356.2 23.8,351.8 -18.8,347.1 -152.9,357.4 -152.9,361 -18.7,352.1 		"/>
		<polygon fill="#222425" points="-22.3,359.2 23.9,356.2 -18.8,352.1 -152.9,361 -143.1,361.7 -89.9,360.1 -54.2,358.1 		"/>
		<path d="M-26.5,374.1l-23.1,1.6v7.6l23.1-3.3V374.1z M-54.1,390.1v-19.8l27.6-1v-5l-27.6-0.5v-5.7l31.9,1.1v24.7L-54.1,390.1z"/>
		<path fill="#9C9E9F" d="M-85.7,370.5l27,0.7v-7.1l-27,0.5V370.5z M-54.2,358.1v19l-31.5-2.1v5.7l31.5,3.4v6l-35.7-5.2v-24.7
			L-54.2,358.1z"/>
		<path fill="none" stroke="#FFFFFF" stroke-width="0.25" stroke-miterlimit="10" d="M-59.4,364.2"/>
		<path fill="none" stroke="#FFFFFF" stroke-width="0.25" stroke-miterlimit="10" d="M-59.6,370.7"/>
		<path fill="none" stroke="#FFFFFF" stroke-width="0.25" stroke-miterlimit="10" d="M-54.4,376.2"/>
		<path fill="none" stroke="#FFFFFF" stroke-width="0.25" stroke-miterlimit="10" d="M-54.3,383.6"/>
		<path fill="none" stroke="#FFFFFF" stroke-width="0.25" stroke-miterlimit="10" d="M-54.4,390.1"/>
		<path fill="none" stroke="#FFFFFF" stroke-width="0.25" stroke-miterlimit="10" d="M-54.4,357.9"/>
		<path fill="none" stroke="#FFFFFF" stroke-width="0.25" stroke-miterlimit="10" d="M-18.9,352"/>
		<path fill="none" stroke="#FFFFFF" stroke-width="0.25" stroke-miterlimit="10" d="M-54.6,389.8"/>
		<polygon fill="#9C9E9F" points="-146.4,371.8 -146.4,379.8 -106.2,387.3 -106.2,373.5 		"/>
	</g>
</g>
<path fill="#E6511E" d="M-82.4,435.6h1.3v7h3.7v1.3h-5V435.6z M-74.5,435.6h3.8v1.3h-1.3v5.7h1.3v1.3h-3.8v-1.3h1.3v-5.7h-1.3V435.6
	z M-67.2,435.6h1.3v7h3.7v1.3h-5V435.6z M-59.1,435.6h1.3v7h3.7v1.3h-5V435.6z M-51,435.6h5.4v1.3h-4.1v2.1h3.9v1.3h-3.9v2.3h4.1
	v1.3H-51V435.6z"/>
</svg>
